<svg width="73" height="73" viewBox="0 0 73 73" fill="none" xmlns="http://www.w3.org/2000/svg">
<circle cx="36.5" cy="36.5" r="35.5" stroke="white" stroke-width="2"/>
<path d="M53 37.1253C53.0001 33.8082 51.9611 30.5745 50.029 27.8783C48.0969 25.182 45.3688 23.1587 42.2278 22.0925C39.0868 21.0262 35.6907 20.9707 32.5165 21.9336C29.3423 22.8966 26.5495 24.8296 24.5303 27.4613C22.511 30.0929 21.3669 33.2909 21.2585 36.6062C21.1501 39.9215 22.0829 43.1874 23.9259 45.9453C25.7688 48.7033 28.4294 50.8146 31.5339 51.9828C34.6384 53.1511 38.0309 53.3175 41.2349 52.4588" stroke="white" stroke-width="3" stroke-linecap="round"/>
<path d="M37.125 44.1807C41.0217 44.1807 44.1806 41.0218 44.1806 37.1251C44.1806 33.2285 41.0217 30.0696 37.125 30.0696C33.2283 30.0696 30.0695 33.2285 30.0695 37.1251C30.0695 41.0218 33.2283 44.1807 37.125 44.1807Z" stroke="white" stroke-width="3"/>
<path d="M44.1805 31.8335V39.771C44.1805 40.9405 44.6451 42.0622 45.4721 42.8891C46.2991 43.7161 47.4207 44.1807 48.5903 44.1807C49.7598 44.1807 50.8814 43.7161 51.7084 42.8891C52.5354 42.0622 53 40.9405 53 39.771V37.1252" stroke="white" stroke-width="3" stroke-linecap="round"/>
</svg>
