<svg width="70" height="52" viewBox="0 0 70 52" fill="none" xmlns="http://www.w3.org/2000/svg">
<path d="M31.3034 37.3702C42.0308 44.4195 50.1712 47.8951 55.6087 48.8267C58.3369 49.294 60.2117 49.0904 61.3715 48.5552C62.4268 48.0677 62.9962 47.2644 63.1243 46.0554C63.2628 44.7445 62.8745 42.8982 61.7135 40.5539C61.1597 39.4359 60.4418 38.2323 59.5575 36.9549H63.043C63.5302 37.7462 63.9601 38.5164 64.3299 39.2628C65.6114 41.8502 66.2472 44.2777 66.027 46.3611C65.7957 48.546 64.6229 50.2627 62.5956 51.1985C60.6718 52.0863 58.1172 52.2116 55.1156 51.6977C49.0915 50.6657 40.5524 46.934 29.6989 39.8017C28.2463 38.8471 26.8507 37.8969 25.5122 36.9549H30.6822C30.8884 37.0918 31.0948 37.233 31.3034 37.3702ZM5.36094 19.8532C6.85419 19.8532 7.97443 20.0865 8.72114 20.5527C9.47343 21.0191 9.95801 21.7902 10.1747 22.8648L7.72933 23.1977C7.60387 22.6803 7.34728 22.2903 6.95981 22.0288C6.57792 21.7672 6.02768 21.6363 5.30964 21.6363C4.54599 21.6363 3.97297 21.7559 3.59106 21.9947C3.2093 22.2335 3.01836 22.5921 3.0182 23.0697C3.0182 23.3823 3.0982 23.6384 3.2576 23.8375C3.42287 24.0365 3.66526 24.2072 3.98437 24.3494C4.28646 24.4859 4.93351 24.6594 5.92525 24.8698C6.50089 24.9949 6.99689 25.1145 7.41298 25.2282C7.82897 25.3362 8.16256 25.4415 8.41333 25.5438C8.66403 25.6519 8.88651 25.7658 9.08026 25.8852C9.27961 26.0044 9.45081 26.1327 9.59326 26.269C9.88384 26.5477 10.1063 26.8807 10.2602 27.2673C10.414 27.6482 10.491 28.0894 10.491 28.5897C10.491 29.7669 10.0519 30.6685 9.1743 31.2942C8.30218 31.9142 7.01967 32.2242 5.32674 32.2242C2.27719 32.2242 0.501608 31.1235 0 28.9224L2.43679 28.5214C2.60206 29.1583 2.92429 29.622 3.40295 29.9121C3.88177 30.1964 4.54582 30.3387 5.39515 30.3387C6.27865 30.3387 6.93987 30.205 7.37877 29.9377C7.8175 29.6704 8.03713 29.2692 8.03713 28.7347C8.03703 28.3937 7.93727 28.1118 7.73787 27.89C7.5384 27.6684 7.25319 27.4833 6.88287 27.3355C6.70047 27.2616 6.43242 27.1819 6.07916 27.0966C5.72576 27.0056 5.28677 26.906 4.76243 26.798C4.15828 26.6559 3.68508 26.5363 3.34311 26.4396C3.00117 26.3373 2.72746 26.2406 2.5223 26.1496C2.31716 26.0529 2.11751 25.9476 1.92378 25.8339C1.49639 25.5779 1.16277 25.2366 0.923415 24.8101C0.684176 24.3837 0.56431 23.8515 0.56431 23.2147C0.564454 22.1286 0.972011 21.2978 1.78698 20.7234C2.60778 20.1434 3.79928 19.8532 5.36094 19.8532ZM14.8688 25.4842L20.2981 20.0323H23.2393L18.092 25.1172L23.6583 32.0535H20.6828L16.3564 26.5335L14.8688 27.6683V32.0535H12.3464V20.0323H14.8688V25.4842ZM29.6605 25.1172L32.5846 20.0323H35.2265L30.9344 27.1222V32.0535H28.4207V27.1222L24.1286 20.0323H26.7705L29.6605 25.1172ZM41.0407 20.0323C43.0697 20.0323 44.6403 20.5444 45.7518 21.5681C46.8633 22.5861 47.4189 24.0482 47.4191 25.9533C47.4191 27.2386 47.1681 28.3366 46.6667 29.2466C46.1709 30.1565 45.481 30.8534 44.5975 31.3368C43.7197 31.8146 42.7051 32.0535 41.5537 32.0535H36.6801V20.0323H41.0407ZM58.8079 21.9776H51.8566V24.9978H58.2864V26.943H51.8566V30.1082H59.1584V32.0535H49.3343V20.0323H58.8079V21.9776ZM63.5361 30.1082H70V32.0535H61.0138V20.0323H63.5361V30.1082ZM39.2023 30.1082H41.34C42.0639 30.1082 42.688 29.9405 43.2124 29.6048C43.7424 29.2637 44.1529 28.7829 44.4436 28.163C44.7341 27.5432 44.8797 26.8063 44.8797 25.9533C44.8796 24.6625 44.5433 23.6782 43.8708 23.0014C43.1981 22.3191 42.2375 21.9776 40.9893 21.9776H39.2023V30.1082ZM3.96584 0.736589C5.83895 -0.0592209 8.24125 -0.191105 11.0026 0.248862C16.5285 1.1296 24.0385 4.37938 33.1091 10.4854C35.6226 12.0292 37.9865 13.5782 40.2056 15.1139H34.9729C33.8663 14.395 32.7273 13.6707 31.5528 12.9497L31.5258 12.934L31.5001 12.917C22.578 6.9075 15.4707 3.91109 10.5409 3.12546C8.07301 2.73236 6.28574 2.91549 5.10871 3.41553C4.00278 3.88564 3.3781 4.6511 3.14502 5.72335C2.8946 6.87644 3.07432 8.52104 3.96156 10.6646C4.51627 12.0045 5.32958 13.495 6.424 15.1139H2.96975C2.27457 13.9524 1.7036 12.8384 1.264 11.7766C0.25372 9.33582 -0.131249 7.05541 0.292129 5.10622C0.733339 3.07624 2.02175 1.56284 3.96584 0.736589Z" fill="white"/>
</svg>
