<svg width="178" height="110" viewBox="0 0 178 110" fill="none" xmlns="http://www.w3.org/2000/svg">
<path d="M35.3661 67.4589C49.2617 72.4704 66.0379 76.914 84.3078 80.1355C102.127 83.2775 119.009 84.8399 133.536 84.9554C121.868 102.263 100.737 112.039 78.8549 108.181C56.9026 104.31 40.3529 87.8029 35.3661 67.4589ZM92.7182 32.4377C141.669 41.069 179.563 58.2071 177.357 70.7166C175.151 83.2262 133.681 86.3702 84.7304 77.7389C35.7799 69.1076 -2.11415 51.9695 0.0916231 39.46C2.2974 26.9504 43.7677 23.8064 92.7182 32.4377ZM97.7826 0.837044C120.075 4.76775 136.795 21.7294 141.494 42.5068C127.714 37.5818 111.154 33.2172 93.1408 30.0411C74.6777 26.7855 57.2211 25.2243 42.3472 25.213C53.8421 7.19087 75.4204 -3.10602 97.7826 0.837044Z" fill="url(#paint0_linear_13_120)"/>
<defs>
<linearGradient id="paint0_linear_13_120" x1="98.275" y1="0.923868" x2="79.3473" y2="108.268" gradientUnits="userSpaceOnUse">
<stop stop-color="#EE6938"/>
<stop offset="0.307692" stop-color="#E8754B"/>
<stop offset="0.634615" stop-color="#974D32"/>
<stop offset="1" stop-color="#632D19"/>
</linearGradient>
</defs>
</svg>
