<svg width="178" height="110" viewBox="0 0 178 110" fill="none" xmlns="http://www.w3.org/2000/svg">
<path d="M42.815 84.7888C57.5866 84.7455 74.8709 83.1833 93.1408 79.9619C110.96 76.8198 127.358 72.5141 141.049 67.654C136.004 87.9083 119.491 104.323 97.6089 108.181C75.6566 112.052 54.4591 102.2 42.815 84.7888ZM84.7304 32.2641C133.681 23.6328 175.151 26.7768 177.357 39.2863C179.563 51.7959 141.669 68.9339 92.7182 77.5652C43.7677 86.1965 2.29738 83.0526 0.0916044 70.543C-2.11417 58.0334 35.7799 40.8954 84.7304 32.2641ZM78.6812 0.837059C100.973 -3.09364 122.487 7.12637 134.008 25.0436C119.375 25.1286 102.321 26.6913 84.3078 29.8675C65.8447 33.123 48.9069 37.6264 34.9261 42.7029C39.5639 21.8362 56.319 4.78012 78.6812 0.837059Z" fill="url(#paint0_linear_1_43)"/>
<defs>
<linearGradient id="paint0_linear_1_43" x1="79.1737" y1="0.750234" x2="98.1013" y2="108.094" gradientUnits="userSpaceOnUse">
<stop stop-color="#EE6938"/>
<stop offset="0.307692" stop-color="#E8754B"/>
<stop offset="0.634615" stop-color="#974D32"/>
<stop offset="1" stop-color="#632D19"/>
</linearGradient>
</defs>
</svg>
