<svg width="73" height="73" viewBox="0 0 73 73" fill="none" xmlns="http://www.w3.org/2000/svg">
<circle cx="36.5" cy="36.5" r="35.5" stroke="white" stroke-width="2"/>
<path fill-rule="evenodd" clip-rule="evenodd" d="M52.9603 25.5549C53.0471 25.0153 52.991 24.4618 52.798 23.952C52.605 23.4422 52.282 22.9947 51.8627 22.6562C51.4435 22.3177 50.9432 22.1006 50.4142 22.0275C49.8852 21.9543 49.3467 22.0279 48.8548 22.2404L14.8249 36.9171C12.4528 37.9404 12.3314 41.4547 14.8249 42.5147C17.2943 43.5686 19.7994 44.5327 22.3354 45.4052C24.6597 46.192 27.1951 46.9197 29.2269 47.1256C29.7821 47.8065 30.4806 48.4628 31.1931 49.0621C32.2816 49.9794 33.5911 50.9232 34.9443 51.8283C37.6548 53.6425 40.6617 55.3772 42.6876 56.5065C45.1095 57.8519 48.009 56.3027 48.4428 53.5977L52.9603 25.5549ZM18.6398 39.6955L48.7374 26.7147L44.5224 52.8883C42.5344 51.7814 39.6707 50.1242 37.1195 48.416C35.9436 47.6426 34.8084 46.8064 33.7185 45.9107C33.4272 45.6669 33.1444 45.4126 32.8707 45.1483L40.7533 37.0761C41.1267 36.6939 41.3366 36.1754 41.3368 35.6347C41.337 35.0939 41.1274 34.5752 40.7543 34.1928C40.3811 33.8103 39.8749 33.5953 39.347 33.5951C38.8191 33.5949 38.3128 33.8095 37.9394 34.1917L29.3085 43.0324C27.8478 42.8408 25.814 42.2864 23.5811 41.5322C21.9189 40.9648 20.2718 40.3517 18.6418 39.6935L18.6398 39.6955Z" fill="white"/>
</svg>
