<svg width="73" height="73" viewBox="0 0 73 73" fill="none" xmlns="http://www.w3.org/2000/svg">
<circle cx="36.5" cy="36.5" r="35.5" stroke="white" stroke-width="2"/>
<path fill-rule="evenodd" clip-rule="evenodd" d="M58.6503 48.6062C57.6246 46.4715 56.2733 44.5214 54.6482 42.8306C54.1038 42.1963 53.5346 41.5852 52.9421 40.9989L52.8705 40.9268C52.6503 40.7062 52.4328 40.4827 52.2182 40.2564C54.4403 37.0624 56.3416 33.6424 57.8925 30.0496L57.9547 29.9054L57.998 29.7534C58.2035 29.0461 58.4373 27.7015 57.6078 26.4856C56.7482 25.2307 55.3739 25.0046 54.4521 25.0046H50.2162C49.3291 24.9623 48.4519 25.2113 47.7102 25.7161C46.9686 26.2209 46.4006 26.9555 46.0878 27.8145C45.1762 30.0587 44.0349 32.1955 42.6832 34.1884V29.0578C42.6832 28.3952 42.6229 27.2845 41.9348 26.3492C41.1129 25.2268 39.9234 25.0046 39.0977 25.0046H32.3753C31.4981 24.9838 30.6467 25.3124 29.9975 25.9226C29.3483 26.5327 28.951 27.3776 28.8878 28.2822L28.8821 28.3699V28.4576C28.8821 29.4027 29.2441 30.1003 29.5344 30.5387C29.6645 30.7355 29.8021 30.9148 29.8907 31.0278L29.9095 31.0531C30.0038 31.1739 30.066 31.2538 30.1282 31.3435C30.2941 31.5734 30.5297 31.932 30.5976 32.8556V35.7259C29.2484 33.39 28.1419 30.9132 27.2967 28.3368L27.2817 28.2939L27.2666 28.253C27.0366 27.6314 26.669 26.7272 25.9319 26.0374C25.0723 25.2287 24.0543 25.0046 23.1287 25.0046H18.8306C17.8937 25.0046 16.7645 25.2307 15.9218 26.1485C15.0943 27.0526 15 28.1361 15 28.709V28.9701L15.0528 29.2234C16.2409 34.935 18.6936 40.2843 22.2182 44.8513C23.8287 47.4768 26.0152 49.6728 28.6005 51.2614C31.1857 52.8499 34.0968 53.7862 37.0975 53.9942L37.1748 54H37.254C38.6226 54 40.0497 53.8772 41.1223 53.1387C42.5682 52.141 42.6832 50.6114 42.6832 49.8475V47.63C43.0546 47.9418 43.5145 48.3588 44.0782 48.92C44.7606 49.6254 45.3035 50.2372 45.7692 50.7711L46.018 51.0556C46.38 51.4727 46.7362 51.8838 47.0605 52.2209C47.4677 52.6438 47.971 53.1095 48.6006 53.4544C49.2849 53.8266 50.0032 53.9961 50.7648 53.9961H55.0648C55.9715 53.9961 57.2704 53.774 58.1847 52.6788C59.18 51.4863 59.1046 50.0229 58.7917 48.9726L58.7351 48.7836L58.6503 48.6062ZM47.8673 48.8128C47.2832 48.1376 46.6816 47.4787 46.0633 46.8369L46.0576 46.8311C43.4995 44.2823 42.3062 43.8399 41.4616 43.8399C41.0111 43.8399 40.5153 43.8906 40.1929 44.3076C40.0495 44.5075 39.9545 44.7401 39.9158 44.9857C39.8709 45.2717 39.8507 45.5612 39.8555 45.8509V49.8475C39.8555 50.3444 39.7763 50.5529 39.5539 50.7049C39.2579 50.9095 38.6264 51.0751 37.271 51.0751C34.6963 50.894 32.1999 50.0839 29.9872 48.7112C27.7744 47.3386 25.9084 45.4427 24.5426 43.1794L24.5275 43.154L24.5086 43.1306C21.2251 38.9094 18.9377 33.9558 17.8277 28.6622C17.8352 28.4089 17.888 28.2549 17.9747 28.1614C18.0633 28.064 18.2801 27.9276 18.8306 27.9276H23.1287C23.6056 27.9276 23.8545 28.0367 24.0336 28.2023C24.2334 28.3933 24.4106 28.7148 24.6217 29.2877C25.6774 32.4951 27.1026 35.496 28.4542 37.7018C29.1291 38.8028 29.7927 39.7206 30.3921 40.3695C30.6919 40.6929 30.9841 40.9618 31.2649 41.1528C31.5345 41.336 31.8418 41.4821 32.1585 41.4821C32.3244 41.4821 32.5186 41.4626 32.7052 41.3788C32.907 41.2872 33.073 41.1279 33.1765 40.9268C33.3706 40.5604 33.4253 40.0206 33.4253 39.3133V32.7406C33.3254 31.1467 32.8598 30.2484 32.4073 29.6112C32.3156 29.4838 32.2213 29.3584 32.1246 29.2351L32.1001 29.2039C32.02 29.1027 31.9433 28.9987 31.8701 28.8921C31.7783 28.7724 31.7225 28.6273 31.7098 28.4751C31.7246 28.3203 31.7961 28.1771 31.9096 28.075C32.0232 27.9728 32.1702 27.9194 32.3206 27.9256H39.0977C39.486 27.9256 39.6161 28.023 39.6821 28.1146C39.7763 28.2413 39.8555 28.5043 39.8555 29.0578V37.8811C39.8555 38.9294 40.323 39.6387 41.0017 39.6387C41.7821 39.6387 42.3458 39.1496 43.3298 38.1324L43.3468 38.113L43.3619 38.0954C45.5695 35.3135 47.3731 32.2138 48.7156 28.8941L48.7232 28.8707C48.8235 28.577 49.0144 28.3255 49.2664 28.1548C49.5184 27.9841 49.8176 27.9036 50.1182 27.9256H54.454C55.0421 27.9256 55.2344 28.0815 55.2985 28.1731C55.3645 28.2705 55.4116 28.479 55.2985 28.8882C53.7503 32.4667 51.836 35.8636 49.5885 39.021L49.5734 39.0444C49.3566 39.3893 49.1172 39.7712 49.0832 40.2077C49.0455 40.6793 49.2416 41.106 49.5866 41.5659C49.8373 41.9478 50.3557 42.472 50.8817 43.004L50.9307 43.0546C51.4811 43.6119 52.0787 44.216 52.5575 44.8006L52.5707 44.8142L52.5839 44.8298C54.0115 46.3022 55.1989 48.0039 56.0997 49.8689C56.243 50.3756 56.1563 50.6367 56.0432 50.7711C55.9131 50.927 55.6209 51.0732 55.0667 51.0732H50.7648C50.4715 51.0814 50.1812 51.0109 49.9221 50.8686C49.6049 50.6765 49.3166 50.4376 49.0663 50.1593C48.7967 49.8806 48.5045 49.5435 48.1463 49.1324L47.8673 48.8128Z" fill="white"/>
</svg>
